<?xml version="1.0" standalone="no"?>
<!DOCTYPE svg PUBLIC "-//W3C//DTD SVG 20010904//EN"
 "http://www.w3.org/TR/2001/REC-SVG-20010904/DTD/svg10.dtd">
<svg version="1.0" xmlns="http://www.w3.org/2000/svg"
 width="1319.000000pt" height="369.000000pt" viewBox="0 0 1319.000000 369.000000"
 preserveAspectRatio="xMidYMid meet">

<g transform="translate(0.000000,369.000000) scale(0.100000,-0.100000)"
fill="#000000" stroke="none">
<path d="M2675 3668 c-2 -7 -13 -233 -23 -503 -18 -464 -21 -493 -42 -543 -27
-62 -33 -59 -75 28 -16 33 -35 60 -42 60 -8 0 -23 -16 -34 -35 -12 -19 -23
-35 -24 -35 -2 0 -12 27 -21 60 -19 70 -32 74 -85 30 -34 -27 -37 -36 -49
-112 -7 -46 -16 -89 -20 -96 -16 -32 -142 265 -180 426 -9 40 -16 52 -31 52
-23 0 -24 -4 -44 -225 -9 -99 -18 -188 -21 -197 -9 -32 -23 -19 -30 27 -3 25
-19 63 -34 84 -26 36 -31 55 -54 241 -24 199 -34 236 -57 213 -9 -9 -78 -484
-79 -546 0 -15 -3 -15 -20 -5 -29 18 -37 5 -71 -118 -17 -60 -35 -113 -39
-117 -8 -9 -52 164 -65 255 -11 76 -44 86 -63 18 l-9 -35 -12 45 c-18 67 -19
70 -34 70 -19 0 -95 -83 -143 -155 l-39 -58 -12 124 c-6 68 -12 137 -12 152
-1 29 -25 47 -42 30 -18 -18 -67 -244 -94 -426 -29 -202 -87 -446 -117 -495
-11 -19 -39 -93 -62 -165 l-42 -131 -33 94 c-19 52 -37 99 -42 104 -17 19 -39
-16 -39 -62 0 -25 -2 -43 -5 -41 -2 3 -9 171 -14 374 l-9 370 -51 234 c-28
129 -55 239 -60 244 -15 15 -30 -1 -67 -76 -20 -40 -38 -74 -39 -75 -2 -2 -33
17 -70 43 -43 31 -70 44 -76 38 -5 -5 -17 -72 -26 -147 -14 -122 -18 -135 -29
-115 -9 19 -19 23 -42 21 -30 -3 -30 -2 -84 134 -29 75 -59 139 -67 142 -15 6
-48 -31 -78 -85 -14 -27 -15 -35 -4 -45 10 -11 18 -7 42 21 16 19 30 33 32 30
1 -2 25 -59 51 -126 48 -122 48 -123 81 -123 l32 0 13 -75 c15 -85 31 -117 51
-98 7 7 22 94 35 204 13 105 24 193 26 194 2 2 27 -14 55 -36 29 -21 58 -39
66 -39 7 0 26 27 42 61 24 49 31 57 37 42 4 -10 25 -103 47 -208 l40 -190 11
-560 c9 -389 16 -564 24 -572 25 -27 34 6 51 172 9 94 20 178 24 189 5 13 13
-1 32 -55 41 -117 53 -108 116 95 30 93 62 180 72 195 22 31 82 264 106 411
45 283 58 356 64 368 4 7 13 -49 20 -124 6 -75 14 -141 17 -146 13 -21 33 -3
49 45 9 28 26 68 38 87 29 49 94 131 104 131 4 0 17 -32 28 -73 16 -59 24 -73
40 -73 12 0 22 9 26 25 8 31 11 24 40 -95 24 -102 53 -165 74 -165 9 0 23 30
40 88 38 125 57 186 61 191 2 2 10 -2 19 -9 34 -28 41 -6 65 194 13 107 26
193 29 191 2 -3 10 -51 18 -107 10 -83 17 -106 37 -127 16 -17 30 -51 40 -96
9 -38 18 -80 21 -92 10 -42 39 -27 69 34 22 45 30 81 38 163 15 168 15 168 54
62 48 -132 91 -218 131 -263 34 -38 56 -48 67 -30 3 4 13 55 22 112 10 65 23
111 34 122 16 17 18 14 39 -58 25 -88 43 -95 76 -32 23 43 32 46 41 13 7 -31
79 -100 96 -94 7 3 28 41 46 84 l32 79 10 290 c6 160 13 315 17 345 l6 55 13
-58 c21 -88 39 -117 73 -117 24 0 30 -5 35 -27 3 -16 22 -120 42 -233 20 -113
41 -210 46 -217 17 -22 36 -2 49 50 16 71 24 84 56 90 23 4 33 -1 54 -26 37
-44 55 -32 64 40 8 74 20 96 29 56 4 -15 16 -37 27 -49 12 -13 27 -62 44 -142
28 -139 59 -222 84 -222 9 0 26 14 38 31 19 29 22 30 31 13 6 -11 18 -138 28
-282 18 -258 28 -312 53 -287 6 6 20 69 31 140 30 192 24 178 70 170 33 -6 41
-3 54 17 21 32 76 200 76 232 0 30 7 32 39 10 14 -10 33 -14 50 -11 26 6 27 4
49 -81 12 -48 31 -152 42 -232 12 -80 24 -153 26 -162 7 -23 30 -23 43 0 12
21 14 16 34 -78 15 -74 33 -85 79 -47 21 17 40 61 86 197 56 166 60 175 84
172 14 -2 31 5 43 18 10 11 28 20 40 20 31 0 37 10 81 131 l38 106 28 -11 c33
-12 29 6 64 -306 14 -129 30 -239 34 -244 23 -24 37 7 55 120 19 125 28 143
75 144 14 0 34 7 44 15 11 8 32 15 47 15 25 0 30 8 66 98 22 56 52 113 71 134
31 35 35 47 57 184 13 80 27 149 30 153 4 3 18 -7 31 -24 14 -18 31 -29 43
-27 16 2 26 -16 61 -120 39 -113 46 -152 89 -468 44 -324 48 -345 67 -348 20
-3 22 3 27 80 4 46 9 146 13 223 5 135 17 205 33 205 4 0 16 -46 26 -102 21
-120 23 -128 39 -128 6 0 52 36 101 80 86 76 91 82 112 151 21 72 41 99 54 76
4 -7 21 -61 39 -122 46 -159 69 -163 90 -12 20 142 34 163 80 117 11 -11 31
-20 44 -20 31 0 41 -13 61 -88 14 -48 26 -70 53 -92 58 -47 58 -46 98 180 14
78 24 105 55 152 38 56 40 57 91 60 50 3 54 5 76 45 23 42 24 42 48 27 34 -23
49 -13 63 40 9 36 16 47 37 52 18 5 29 2 35 -7 26 -46 34 -51 73 -44 33 7 40
13 57 54 11 25 33 57 49 71 19 16 36 46 48 85 l19 60 19 -33 c37 -65 38 -66
72 -54 26 9 33 7 51 -12 12 -12 28 -44 38 -72 24 -72 43 -82 68 -34 9 17 21
30 29 30 7 0 66 -79 130 -176 65 -97 122 -174 129 -171 7 2 21 23 33 46 l20
43 46 -118 c25 -66 60 -166 76 -223 35 -117 46 -136 68 -107 8 11 14 30 14 42
0 50 18 29 34 -41 17 -71 35 -96 54 -72 5 7 35 100 66 207 32 107 62 201 66
209 6 11 12 7 26 -15 9 -16 30 -42 45 -59 23 -26 28 -44 38 -130 11 -95 13
-102 46 -133 58 -54 68 -47 94 67 l22 98 42 -8 c23 -4 48 -8 55 -9 7 0 21 -20
32 -45 11 -25 25 -45 33 -45 8 0 44 31 80 69 49 50 67 76 67 96 0 21 4 25 18
21 21 -7 39 10 72 70 13 24 36 48 55 57 31 15 34 15 51 -4 12 -14 26 -18 41
-14 19 4 24 0 32 -30 15 -55 87 -109 115 -86 10 8 16 -6 30 -64 14 -61 21 -75
37 -75 20 0 20 -1 47 135 18 89 19 90 47 88 18 -1 38 -14 57 -38 51 -61 56
-55 109 157 20 83 23 87 45 82 13 -3 32 1 45 10 13 9 33 13 49 10 32 -7 42 5
64 71 26 80 30 83 57 36 24 -42 37 -48 70 -31 13 7 19 21 19 45 0 33 0 34 38
28 48 -7 76 -33 112 -107 17 -34 41 -76 55 -94 14 -20 26 -54 30 -86 4 -29 11
-59 15 -66 15 -24 39 -1 56 54 19 60 38 71 56 32 6 -14 17 -27 24 -30 12 -5
48 31 57 57 2 7 21 -3 46 -26 48 -44 53 -42 98 29 15 24 30 44 33 44 3 0 23
-86 44 -191 37 -178 51 -217 73 -195 3 3 32 98 64 212 32 114 60 208 62 211 3
2 7 -11 11 -30 5 -29 12 -36 37 -41 49 -10 53 -8 73 29 18 34 20 34 33 15 18
-26 31 -25 53 2 12 15 30 23 52 23 18 1 39 3 46 6 8 2 25 -24 45 -71 19 -41
45 -93 59 -116 22 -34 29 -66 47 -220 29 -248 29 -244 51 -244 21 0 20 -1 61
173 13 53 26 97 31 97 13 0 16 -32 38 -370 12 -179 23 -335 26 -347 7 -36 34
-27 51 17 9 22 19 40 22 40 8 0 38 -104 47 -161 7 -48 21 -72 35 -63 5 3 22
31 38 62 16 31 36 66 44 77 15 19 16 19 36 1 35 -32 48 -15 60 81 7 48 14 99
17 113 l6 25 16 -28 c17 -28 36 -35 47 -17 3 6 10 38 14 73 l7 62 22 -68 c12
-38 31 -113 42 -168 21 -108 30 -131 66 -169 22 -24 25 -41 44 -285 46 -590
72 -871 80 -879 23 -23 37 18 50 144 7 71 16 130 20 130 16 0 68 -70 83 -111
9 -24 28 -137 41 -252 14 -114 28 -212 31 -217 13 -21 34 -9 40 22 3 18 23
159 45 313 36 256 42 281 62 295 13 8 36 26 51 40 l29 25 37 368 c21 202 41
370 45 374 3 3 6 1 6 -5 0 -7 9 -12 19 -12 16 0 22 15 38 103 18 92 21 99 31
75 21 -50 40 -46 78 18 10 16 14 13 38 -29 27 -46 52 -60 61 -34 3 6 16 92 29
191 32 234 52 257 102 112 l21 -61 46 0 c37 0 51 -6 76 -29 16 -16 36 -26 44
-23 13 5 37 103 37 151 0 16 4 15 38 -4 l38 -22 37 -190 c36 -183 39 -191 76
-236 21 -26 46 -62 55 -79 19 -37 35 -41 59 -15 25 28 22 52 -8 52 -14 0 -25
4 -25 10 0 5 -17 29 -37 51 -36 40 -39 49 -78 237 l-40 196 -35 24 c-19 13
-43 39 -53 58 -31 61 -49 43 -69 -66 -9 -52 -17 -97 -17 -99 -1 -3 -10 5 -21
17 -15 16 -27 20 -54 15 -33 -5 -34 -4 -50 45 -9 27 -32 67 -50 88 -33 38 -33
38 -59 21 -44 -29 -54 -56 -71 -197 -22 -173 -21 -172 -52 -127 -13 20 -29 37
-35 37 -5 0 -18 -13 -27 -30 -9 -16 -19 -30 -22 -30 -4 0 -12 16 -19 36 -10
27 -17 34 -34 32 -18 -3 -23 -15 -36 -83 -12 -71 -15 -77 -23 -52 -6 16 -17
27 -28 27 -23 0 -19 27 -70 -482 -22 -219 -43 -404 -46 -411 -3 -8 -23 -24
-45 -36 -22 -13 -44 -33 -48 -44 -4 -12 -21 -113 -36 -225 -15 -111 -30 -201
-32 -198 -2 2 -10 56 -18 121 -16 129 -45 208 -90 247 -15 13 -38 45 -51 71
-14 27 -30 47 -37 44 -7 -2 -17 -28 -24 -58 -10 -48 -11 -50 -12 -19 -1 19
-16 215 -34 436 l-33 400 -31 40 c-18 21 -37 59 -42 84 -74 315 -107 415 -137
415 -16 0 -20 -12 -28 -75 -5 -41 -11 -77 -13 -80 -2 -3 -12 6 -22 19 -33 43
-47 22 -60 -86 -18 -151 -19 -155 -42 -142 -16 8 -24 4 -49 -23 -17 -18 -33
-41 -36 -50 -3 -10 -8 -18 -12 -18 -4 0 -22 47 -40 105 -26 81 -38 105 -51
105 -10 0 -23 -10 -29 -22 -10 -21 -11 -22 -11 -3 -1 11 -10 148 -22 304 -20
284 -20 285 -50 328 -17 24 -36 43 -44 43 -14 0 -18 -12 -45 -120 -20 -81 -23
-76 -41 69 -12 93 -23 149 -33 160 -17 19 -106 202 -106 218 0 6 -7 16 -15 23
-12 10 -20 9 -41 -5 -22 -14 -30 -15 -50 -4 -21 11 -27 10 -48 -10 l-25 -23
-13 21 c-19 31 -34 26 -64 -24 -14 -25 -30 -45 -34 -45 -5 0 -16 26 -25 58 -9
31 -19 65 -21 75 -3 10 -13 17 -22 15 -12 -2 -29 -48 -65 -173 -26 -94 -52
-188 -59 -210 -11 -39 -12 -36 -47 135 -43 209 -48 214 -113 116 -24 -36 -46
-66 -50 -66 -4 0 -23 14 -41 30 -42 37 -50 37 -72 4 l-17 -26 -19 20 c-16 17
-24 19 -51 11 -18 -5 -38 -16 -45 -25 -10 -13 -12 -12 -18 8 -4 13 -19 36 -32
52 -14 17 -35 53 -48 80 -30 68 -95 137 -121 130 -12 -3 -27 3 -38 15 -34 37
-66 23 -66 -30 0 -29 -28 -23 -45 11 -27 53 -51 33 -92 -75 -24 -63 -32 -75
-51 -75 -13 0 -32 -5 -43 -11 -14 -7 -29 -7 -49 0 -21 7 -31 6 -38 -2 -5 -7
-22 -63 -37 -125 -28 -113 -37 -133 -52 -110 -10 16 -113 59 -123 53 -5 -3
-14 -37 -21 -75 -12 -66 -29 -104 -29 -63 0 10 -5 35 -11 56 -13 47 -41 50
-59 7 -7 -16 -16 -30 -20 -30 -14 0 -32 29 -45 72 -11 38 -16 43 -43 43 -16 0
-40 9 -52 20 -21 19 -22 19 -78 -10 -40 -21 -63 -41 -77 -67 -17 -31 -25 -37
-49 -35 -27 2 -30 -2 -42 -47 -9 -35 -26 -62 -57 -94 l-45 -45 -16 30 c-15 30
-40 43 -82 43 -12 0 -33 9 -47 20 -51 40 -60 29 -88 -118 -9 -48 -15 -62 -28
-60 -12 3 -18 27 -28 112 -13 106 -14 110 -53 152 -22 24 -46 55 -52 69 -13
28 -42 32 -71 11 -12 -9 -36 -74 -66 -173 -26 -87 -50 -165 -53 -173 -3 -8
-13 21 -23 65 -20 92 -30 115 -50 115 -14 0 -19 -11 -30 -75 l-8 -40 -28 85
c-15 47 -50 141 -77 210 -40 101 -53 126 -71 128 -12 2 -21 -2 -21 -10 0 -7
-8 -30 -18 -52 l-17 -39 -104 157 c-93 140 -107 156 -137 162 -21 4 -40 2 -49
-6 -13 -10 -17 -7 -29 21 -8 19 -28 47 -44 63 -27 25 -34 27 -60 18 -28 -10
-31 -8 -42 18 -14 35 -64 84 -80 78 -7 -2 -23 -38 -36 -80 -18 -57 -32 -82
-53 -97 -15 -11 -36 -41 -45 -66 -10 -25 -24 -45 -31 -45 -7 0 -23 16 -35 35
-24 38 -27 38 -97 9 -22 -8 -34 -22 -39 -41 -10 -42 -13 -45 -37 -28 -12 8
-25 15 -29 15 -4 0 -19 -22 -33 -50 -24 -48 -27 -50 -68 -50 -52 0 -63 -8
-116 -88 -37 -55 -44 -76 -63 -180 -11 -64 -24 -121 -28 -125 -4 -5 -21 31
-37 79 -29 88 -30 88 -68 96 -22 5 -49 17 -60 28 -24 23 -39 24 -83 9 -32 -11
-33 -13 -48 -109 l-7 -45 -27 85 c-28 93 -37 100 -93 77 -32 -14 -37 -22 -57
-91 -22 -72 -27 -81 -90 -136 l-68 -60 -23 127 c-29 152 -38 160 -89 76 -31
-50 -36 -69 -45 -162 l-10 -106 -27 206 c-25 189 -32 220 -81 355 -51 144 -53
149 -80 147 -15 -1 -27 2 -27 7 0 14 -55 40 -84 40 -28 0 -25 10 -56 -195 -20
-129 -24 -143 -53 -172 -16 -18 -46 -72 -66 -120 -30 -74 -40 -89 -61 -91 -13
-2 -33 -10 -44 -18 -11 -8 -29 -14 -39 -14 -33 0 -77 -33 -77 -57 0 -12 -4
-24 -8 -27 -5 -3 -16 70 -26 162 -22 211 -22 212 -53 212 -13 0 -38 7 -55 16
-17 9 -34 12 -38 7 -4 -4 -27 -61 -50 -125 -29 -81 -48 -118 -58 -118 -9 0
-24 -8 -35 -17 -11 -10 -35 -18 -54 -18 l-36 0 -58 -170 c-67 -191 -78 -220
-84 -213 -3 3 -14 47 -26 99 -23 108 -34 127 -58 105 -15 -14 -18 -5 -34 104
-17 120 -62 308 -77 324 -5 4 -21 0 -38 -9 -29 -17 -30 -17 -68 9 -21 14 -44
26 -50 26 -14 0 -24 -23 -24 -54 0 -31 -27 -132 -51 -193 l-21 -52 -48 6 -49
6 -6 -39 c-15 -86 -20 -73 -31 78 -9 133 -15 164 -35 203 -13 25 -29 45 -36
45 -6 0 -22 -14 -34 -31 l-22 -31 -12 23 c-7 13 -25 82 -39 153 -18 90 -32
137 -46 151 -11 12 -32 56 -46 98 -20 58 -30 77 -44 77 -15 0 -20 -13 -30 -72
-6 -40 -13 -84 -16 -98 l-6 -25 -18 23 c-23 27 -41 28 -58 2 -7 -11 -23 -20
-37 -20 -17 0 -28 -7 -34 -22 -12 -32 -15 -23 -51 181 -17 96 -33 178 -36 182
-3 5 -20 9 -38 9 -32 0 -34 2 -51 62 -9 33 -27 131 -39 217 -18 128 -25 156
-39 159 -9 2 -19 -2 -22 -10z"/>
</g>
</svg>
